<svg xmlns="http://www.w3.org/2000/svg" viewBox="0 0 140 140" fill="none">
  <circle cx="70" cy="70" r="18" fill="#F8D66D"/>
  <path d="M70 8c18 22 18 36 0 48C52 44 52 30 70 8ZM70 132c-18-22-18-36 0-48 18 12 18 26 0 48ZM8 70c22-18 36-18 48 0-12 18-26 18-48 0ZM132 70c-22 18-36 18-48 0 12-18 26-18 48 0Z" fill="#FF9EC7"/>
  <path d="M26 26c28 2 38 12 36 34-22 2-32-8-36-34ZM114 26c-2 28-12 38-34 36-2-22 8-32 34-36ZM26 114c2-28 12-38 34-36 2 22-8 32-34 36ZM114 114c-28-2-38-12-36-34 22-2 32 8 36 34Z" fill="#BBA7FF"/>
</svg>
