<svg xmlns="http://www.w3.org/2000/svg" viewBox="0 0 64 64">
  <rect width="64" height="64" rx="18" fill="#fff4fa"/>
  <circle cx="32" cy="34" r="8" fill="#f8d66d"/>
  <path d="M32 5c5.8 7.7 5.8 14.1 0 19-5.8-4.9-5.8-11.3 0-19Z" fill="#ff9ec7"/>
  <path d="M32 59c-5.8-7.7-5.8-14.1 0-19 5.8 4.9 5.8 11.3 0 19Z" fill="#ff9ec7"/>
  <path d="M5 34c7.7-5.8 14.1-5.8 19 0-4.9 5.8-11.3 5.8-19 0Z" fill="#bba7ff"/>
  <path d="M59 34c-7.7 5.8-14.1 5.8-19 0 4.9-5.8 11.3-5.8 19 0Z" fill="#bba7ff"/>
  <path d="M13 13c9.4 1.3 14.1 5.6 14 13-7.4.1-11.7-4.6-14-13Z" fill="#ff9ec7"/>
  <path d="M51 51c-9.4-1.3-14.1-5.6-14-13 7.4-.1 11.7 4.6 14 13Z" fill="#ff9ec7"/>
  <path d="M51 13c-1.3 9.4-5.6 14.1-13 14-.1-7.4 4.6-11.7 13-14Z" fill="#b8eadf"/>
  <path d="M13 51c1.3-9.4 5.6-14.1 13-14 .1 7.4-4.6 11.7-13 14Z" fill="#b8eadf"/>
  <path d="M46 8l2.2 5.2 5.2 2.2-5.2 2.2L46 22l-2.2-4.4-5.2-2.2 5.2-2.2L46 8Z" fill="#f8d66d"/>
  <circle cx="32" cy="34" r="3.5" fill="#7d4d73"/>
</svg>
